<?xml version="1.0" standalone="no"?>
<!DOCTYPE svg PUBLIC "-//W3C//DTD SVG 20010904//EN"
 "http://www.w3.org/TR/2001/REC-SVG-20010904/DTD/svg10.dtd">
<svg version="1.0" xmlns="http://www.w3.org/2000/svg"
 width="1280.000000pt" height="1280.000000pt" viewBox="0 0 1280.000000 1280.000000"
 preserveAspectRatio="xMidYMid meet">
<metadata>
Created by potrace 1.11, written by Peter Selinger 2001-2013
</metadata>
<g transform="translate(0.000000,1280.000000) scale(0.100000,-0.100000)"
fill="#000000" stroke="none">
<path d="M6085 12789 c-185 -9 -294 -18 -420 -34 -60 -8 -135 -17 -165 -20
-203 -24 -553 -100 -885 -192 -229 -63 -591 -198 -875 -326 -421 -189 -914
-488 -1292 -785 -277 -219 -673 -598 -899 -862 -756 -885 -1251 -1932 -1449
-3070 -16 -91 -34 -205 -40 -255 -6 -49 -13 -101 -16 -115 -2 -14 -7 -59 -10
-100 -3 -41 -7 -86 -9 -99 -9 -55 -19 -329 -19 -516 0 -402 27 -733 90 -1095
151 -872 470 -1683 953 -2425 109 -168 399 -555 488 -651 15 -17 49 -55 74
-85 145 -170 402 -423 625 -613 209 -179 351 -288 554 -427 730 -500 1614
-863 2465 -1013 50 -8 104 -18 120 -21 62 -11 334 -46 435 -55 192 -18 333
-23 600 -23 324 -1 549 13 800 48 14 2 50 6 80 10 279 33 746 141 1070 247
216 70 594 214 625 238 6 4 21 11 35 15 44 13 410 199 555 282 169 97 370 223
479 302 45 32 100 71 122 87 44 31 282 216 324 253 211 184 297 264 447 416
98 99 205 211 238 250 33 38 68 79 79 90 55 60 258 321 346 446 430 604 748
1268 946 1974 51 184 107 423 134 575 11 58 21 115 24 127 8 36 54 412 60 488
27 327 27 749 1 1075 -8 100 -16 179 -20 200 -2 12 -7 48 -10 79 -57 518 -259
1252 -480 1746 -15 33 -36 80 -47 105 -95 213 -288 565 -438 800 -379 592
-910 1171 -1475 1606 -219 169 -496 356 -682 460 -37 22 -86 49 -108 62 -92
52 -427 218 -544 269 -449 196 -935 346 -1406 433 -60 11 -132 24 -160 29 -27
6 -75 13 -105 16 -86 10 -119 14 -205 24 -244 31 -719 45 -1010 30z"/>
</g>
</svg>
